<svg width="240" height="40" viewBox="0 0 240 40" fill="none" xmlns="http://www.w3.org/2000/svg">
<path d="M73.7381 36V2.4H86.3621C89.0821 2.4 91.3221 2.864 93.0821 3.792C94.8741 4.688 96.2021 5.92 97.0661 7.488C97.9621 9.056 98.4101 10.832 98.4101 12.816C98.4101 14.64 97.9781 16.336 97.1141 17.904C96.2821 19.472 94.9701 20.752 93.1781 21.744C91.4181 22.704 89.1461 23.184 86.3621 23.184H80.2181V36H73.7381ZM80.2181 17.952H85.9781C88.0261 17.952 89.4981 17.488 90.3941 16.56C91.3221 15.632 91.7861 14.384 91.7861 12.816C91.7861 11.184 91.3221 9.92 90.3941 9.024C89.4981 8.128 88.0261 7.68 85.9781 7.68H80.2181V17.952ZM96.1463 36L106.802 2.4H117.41L128.018 36H121.154L112.226 6.192H112.034L102.914 36H96.1463ZM101.57 26.352L103.25 21.312H120.386L122.066 26.352H101.57ZM130.035 36V2.4H138.579L148.131 24.672H148.323L157.779 2.4H166.275V36H159.795V12.576H159.603L151.443 31.2H144.771L136.707 12.576H136.515V36H130.035Z" fill="url(#paint0_linear_220_4)"/>
<defs>
<linearGradient id="paint0_linear_220_4" x1="-2.0339" y1="7.5" x2="226.268" y2="67.8249" gradientUnits="userSpaceOnUse">
<stop stop-color="#69FFBE"/>
<stop offset="1" stop-color="#69FFFA"/>
</linearGradient>
</defs>
</svg>
